<?xml version="1.0" encoding="UTF-8"?>
<svg id="Layer_1" data-name="Layer 1" xmlns="http://www.w3.org/2000/svg" viewBox="0 0 259.44 333">
  <defs>
    <style>
      .cls-1 {
        fill: #8c8c8c;
      }
    </style>
  </defs>
  <g>
    <polygon class="cls-1" points="0 0 0 26.93 0 50.93 51.92 50.93 51.92 26.93 103.68 26.93 103.68 50.93 103.84 50.93 155.6 50.93 155.76 50.93 155.76 26.93 207.52 26.93 207.52 50.93 259.44 50.93 259.44 26.93 259.44 0 0 0"/>
    <polygon class="cls-1" points="207.52 179.05 155.76 179.05 155.76 154.97 155.6 154.97 103.84 154.97 103.68 154.97 103.68 179.05 51.92 179.05 51.92 154.97 0 154.97 0 179.05 0 205.99 103.68 205.99 155.76 205.99 259.44 205.99 259.44 179.05 259.44 154.97 207.52 154.97 207.52 179.05"/>
    <polygon class="cls-1" points="207.52 89.53 155.76 89.53 155.76 70.23 155.6 70.23 103.84 70.23 103.68 70.23 103.68 89.53 51.92 89.53 51.92 70.23 0 70.23 0 89.53 0 116.37 0 116.46 0 135.67 51.92 135.67 51.92 116.46 103.68 116.46 103.68 135.67 103.84 135.67 155.6 135.67 155.76 135.67 155.76 116.46 207.52 116.46 207.52 135.67 259.44 135.67 259.44 116.46 259.44 116.37 259.44 89.53 259.44 70.23 207.52 70.23 207.52 89.53"/>
  </g>
  <g>
    <polygon class="cls-1" points="26.42 269.35 26.42 255.86 26.42 251.27 52.25 251.27 52.25 255.86 52.25 269.35 52.25 269.52 78.07 269.52 78.07 269.35 78.07 255.86 78.07 251.27 78.07 241.86 78.07 224.99 52.25 224.99 52.25 241.86 26.42 241.86 26.42 224.99 .6 224.99 .6 241.86 .6 251.27 .6 255.86 .6 269.35 .6 269.52 26.42 269.52 26.42 269.35"/>
    <polygon class="cls-1" points="142.63 255.86 142.63 259.94 116.81 259.94 116.81 255.86 116.81 224.99 90.98 224.99 90.98 255.86 90.98 259.94 90.98 269.35 116.81 269.35 142.63 269.35 168.46 269.35 168.46 259.94 168.46 255.86 168.46 224.99 142.63 224.99 142.63 255.86"/>
    <polygon class="cls-1" points="233.02 224.99 233.02 255.86 233.02 259.94 207.19 259.94 207.19 255.86 207.19 224.99 181.37 224.99 181.37 255.86 181.37 259.94 181.37 269.35 207.19 269.35 233.02 269.35 258.84 269.35 258.84 259.94 258.84 255.86 258.84 224.99 233.02 224.99"/>
  </g>
  <g>
    <polygon class="cls-1" points="142.63 319.34 142.63 323.42 116.81 323.42 116.81 319.34 116.81 297.93 116.81 288.52 116.81 288.47 90.98 288.47 90.98 288.52 26.42 288.52 26.42 288.47 .6 288.47 .6 288.52 .6 297.93 .6 305.34 .6 314.75 .6 319.34 .6 332.83 .6 333 26.42 333 26.42 332.83 26.42 319.34 26.42 314.75 65.16 314.75 65.16 305.34 26.42 305.34 26.42 297.93 90.98 297.93 90.98 319.34 90.98 323.42 90.98 332.83 116.81 332.83 142.63 332.83 168.46 332.83 168.46 323.42 168.46 319.34 168.46 288.47 142.63 288.47 142.63 319.34"/>
    <polygon class="cls-1" points="233.02 319.34 233.02 323.42 207.19 323.42 207.19 319.34 207.19 288.47 181.37 288.47 181.37 319.34 181.37 323.42 181.37 332.83 207.19 332.83 233.02 332.83 258.84 332.83 258.84 323.42 258.84 319.34 258.84 288.47 233.02 288.47 233.02 319.34"/>
  </g>
</svg>