<?xml version="1.0" encoding="UTF-8"?>
<svg id="Layer_1" data-name="Layer 1" xmlns="http://www.w3.org/2000/svg" viewBox="0 0 1081.23 88.28">
  <defs>
    <style>
      .cls-1 {
        fill: #8c8c8c;
      }
    </style>
  </defs>
  <g>
    <polygon class="cls-1" points="51.2 87.94 51.2 61.2 51.2 52.1 102.4 52.1 102.4 61.2 102.4 87.94 102.4 88.28 153.6 88.28 153.6 87.94 153.6 61.2 153.6 52.1 153.6 33.44 153.6 0 102.4 0 102.4 33.44 51.2 33.44 51.2 0 0 0 0 33.44 0 52.1 0 61.2 0 87.94 0 88.28 51.2 88.28 51.2 87.94"/>
    <polygon class="cls-1" points="281.6 61.2 281.6 69.28 230.4 69.28 230.4 61.2 230.4 0 179.2 0 179.2 61.2 179.2 69.28 179.2 87.94 230.4 87.94 281.6 87.94 332.8 87.94 332.8 69.28 332.8 61.2 332.8 0 281.6 0 281.6 61.2"/>
    <polygon class="cls-1" points="460.8 0 460.8 61.2 460.8 69.28 409.6 69.28 409.6 61.2 409.6 0 358.4 0 358.4 61.2 358.4 69.28 358.4 87.94 409.6 87.94 460.8 87.94 512 87.94 512 69.28 512 61.2 512 0 460.8 0"/>
  </g>
  <g>
    <polygon class="cls-1" points="850.83 61.2 850.83 69.28 799.63 69.28 799.63 61.2 799.63 18.76 799.63 .1 799.63 0 748.43 0 748.43 .1 620.43 .1 620.43 0 569.23 0 569.23 .1 569.23 18.76 569.23 33.44 569.23 52.1 569.23 61.2 569.23 87.94 569.23 88.28 620.43 88.28 620.43 87.94 620.43 61.2 620.43 52.1 697.23 52.1 697.23 33.44 620.43 33.44 620.43 18.76 748.43 18.76 748.43 61.2 748.43 69.28 748.43 87.94 799.63 87.94 850.83 87.94 902.03 87.94 902.03 69.28 902.03 61.2 902.03 0 850.83 0 850.83 61.2"/>
    <polygon class="cls-1" points="1030.03 61.2 1030.03 69.28 978.83 69.28 978.83 61.2 978.83 0 927.63 0 927.63 61.2 927.63 69.28 927.63 87.94 978.83 87.94 1030.03 87.94 1081.23 87.94 1081.23 69.28 1081.23 61.2 1081.23 0 1030.03 0 1030.03 61.2"/>
  </g>
</svg>